<svg xmlns="http://www.w3.org/2000/svg" xmlns:xlink="http://www.w3.org/1999/xlink" width="519.135" height="43.927" viewBox="0 0 519.135 43.927">
  <defs>
    <clipPath id="clip-path">
      <rect id="Rectangle_260" data-name="Rectangle 260" width="519.135" height="43.927" fill="#fdb851" stroke="#fdb851" stroke-width="3"/>
    </clipPath>
  </defs>
  <g id="Group_181" data-name="Group 181" transform="translate(0 0)">
    <g id="Group_180" data-name="Group 180" transform="translate(0 0)" clip-path="url(#clip-path)">
      <path id="Path_22" data-name="Path 22" d="M444.442,25.317a5.52,5.52,0,0,1-5.168,3.184q-13.89.256-27.775.465-19.676.31-39.352.6c-12.924.184-25.85.3-38.771.531-23.147.411-46.3.738-69.435,1.385-15.8.439-31.589,1.311-47.375,2.085-12.808.628-25.613,1.305-38.4,2.137-8.94.583-17.864,1.379-26.77,2.234q-16.807,1.609-33.572,3.5c-5.059.565-10.069,1.432-15.1,2.155-.833.12-1.671.215-2.6.333a5.693,5.693,0,0,1-.438-1c-.632-3.162-.54-3.356,3.114-4.128,20.164-4.261,40.21-8.94,60.689-12.122,17.435-2.711,34.936-5.077,52.54-6.909,12.912-1.341,25.8-2.823,38.72-4.118,12.059-1.209,24.143-2.264,36.217-3.374,8.623-.794,17.244-1.63,25.877-2.336,7.2-.587,14.406-1.117,21.622-1.49,10.776-.555,21.559-1.039,32.347-1.391s21.6-.5,32.405-.754c7.131-.17,14.26-.383,21.4-.78-9.594-.2-19.186-.551-28.778-.583-17.556-.06-35.115-.044-52.671.152-14.558.162-29.117.517-43.668.986q-23.563.761-47.109,1.907-31.34,1.516-62.657,3.32c-15.106.868-30.194,1.943-45.29,2.943-11.631.77-23.266,1.488-34.885,2.366-14.595,1.1-29.175,2.342-43.762,3.525-10.27.832-20.552,1.592-30.809,2.522-10.926.99-21.83,2.147-32.744,3.226-.555.056-1.119.052-1.957.088C.184,24.8.09,23.727,0,22.7c2.351-1.574,5.078-1.556,7.579-1.831,14.144-1.556,28.3-3.076,42.476-4.4,14.563-1.357,29.155-2.508,43.743-3.681,9.308-.748,18.626-1.405,27.945-2.041q20.613-1.4,41.236-2.717c17.12-1.073,34.238-2.157,51.368-3.09C228.4,4.181,242.464,3.577,256.528,3c17.149-.7,34.3-1.4,51.458-1.891,16.776-.475,33.56-.75,50.344-.972,12.432-.164,24.869-.15,37.3-.128,7.332.014,14.672.056,21.995.345,10.5.413,20.985,1.017,31.468,1.63,7.311.425,14.645.768,21.9,1.562,14.716,1.608,29.388,3.485,44.07,5.289a38.962,38.962,0,0,1,4.068.93c-.332,2.444-3.289,4.535-5.926,4.275-2.676-.265-5.323-.786-8-.974-7.2-.511-14.413-1.021-21.634-1.319-13-.537-26.015-1.061-39.028-1.321-9.054-.18-18.12.03-27.177.174q-16.483.265-32.96.722c-11.565.337-23.14.6-34.679,1.269q-23.952,1.389-47.85,3.374-28.5,2.367-56.93,5.225c-17.045,1.684-34.078,3.481-51.068,5.5-10.873,1.291-21.658,3.072-32.48,4.637a1.453,1.453,0,0,0-1,.517c2.485-.164,4.974-.281,7.451-.5,16.6-1.456,33.26-2.326,49.937-2.941,15.706-.581,31.4-1.319,47.116-1.784,12.435-.369,24.881-.457,37.323-.618q21.856-.28,43.709-.463,33.577-.277,67.154-.489c8.584-.066,17.166-.192,25.748-.227,1.7-.006,3.39.289,5.6.493" transform="translate(0 0)" fill="#fdb851"/>
      <path id="Path_22_-_Outline" data-name="Path 22 - Outline" d="M99.21,45.554l-.455-1.016c-.051-.114-.1-.219-.161-.33a3.717,3.717,0,0,1-.38-.992c-.339-1.694-.607-3.034.217-4.144.74-1,2.025-1.312,4.059-1.742,4.4-.93,8.87-1.9,13.193-2.83,15.5-3.349,31.526-6.813,47.576-9.307,18.884-2.936,36.095-5.2,52.615-6.919,5.541-.576,11.172-1.187,16.618-1.779,7.242-.787,14.73-1.6,22.108-2.34,8.844-.887,17.846-1.7,26.551-2.493,3.172-.288,6.453-.585,9.678-.882,2.1-.193,4.237-.393,6.3-.585,6.417-.6,13.052-1.217,19.589-1.752,8.5-.694,15.382-1.168,21.667-1.493q4.022-.207,7.849-.391l-3.052.032c-13.441.15-27.715.472-43.636.986-15.258.493-31.1,1.134-47.085,1.906-20.573,1-41.65,2.112-62.644,3.319-11.106.638-22.392,1.4-33.306,2.139-3.923.265-7.98.539-11.971.8-2.85.189-5.748.377-8.55.56-8.631.562-17.556,1.143-26.321,1.805-10.327.78-20.823,1.643-30.973,2.478-4.189.344-8.52.7-12.781,1.046-3.062.248-6.176.494-9.188.731-7.087.559-14.416,1.137-21.607,1.79-7.427.673-14.971,1.436-22.267,2.174-3.429.347-6.975.706-10.465,1.05-.412.042-.814.054-1.278.068-.237.007-.482.014-.761.026l-1.435.062-.124-1.431c-.078-.9-.152-1.743-.222-2.549l-.141-1.607.737-.493c2.29-1.533,4.821-1.76,7.054-1.96.415-.037.808-.072,1.2-.115,13.545-1.49,28.068-3.054,42.5-4.4,13.163-1.227,26.564-2.3,39.525-3.342l4.237-.34c9.818-.789,19.645-1.475,27.963-2.042,11.237-.766,26.079-1.766,41.245-2.717l3.775-.237c15.6-.978,31.728-1.99,47.605-2.854,14.293-.777,28.73-1.393,42.2-1.942l1.813-.074C274.553.769,291.38.084,307.943-.386c17.842-.505,35.473-.775,50.367-.973,7.405-.1,15.284-.142,25.547-.142,4.042,0,8.035.006,11.779.013,7.059.013,14.576.051,22.051.346,10.22.4,20.311.977,31.5,1.631q1.7.1,3.4.194c6.1.344,12.408.7,18.58,1.375,11.619,1.27,23.4,2.73,34.793,4.142,3.047.378,6.2.768,9.3,1.149a22.206,22.206,0,0,1,3,.647c.424.113.825.219,1.223.311l1.33.31-.184,1.353a6.2,6.2,0,0,1-2.48,4,7.5,7.5,0,0,1-4.48,1.6c-.2,0-.4-.01-.6-.029-1.2-.118-2.393-.287-3.549-.451-1.451-.205-2.952-.417-4.412-.52-7.037-.5-14.313-1.016-21.591-1.317-13.855-.573-26.353-1.067-39-1.32-2.342-.047-4.777-.069-7.442-.069-5.246,0-10.587.091-15.752.178l-3.93.065c-12.185.2-22.96.432-32.94.721q-2.718.079-5.437.155c-9.582.269-19.49.547-29.2,1.113-15.819.918-31.905,2.052-47.813,3.372-17.215,1.43-35.83,3.138-56.907,5.223-17.822,1.761-33.56,3.445-47.989,5.135,6.466-.342,13.3-.644,20.626-.915,5.723-.212,11.543-.448,17.171-.677,9.815-.4,19.965-.812,29.956-1.107,9.9-.294,19.974-.412,29.712-.526,2.5-.029,5.091-.06,7.636-.092,14.951-.191,29.659-.347,43.716-.463,13.436-.111,27.1-.206,40.306-.3,8.8-.061,17.9-.124,26.85-.192,3.386-.026,6.83-.062,10.161-.1,5.11-.053,10.394-.109,15.593-.13h.057a32.229,32.229,0,0,1,3.671.284c.639.073,1.3.149,2.018.216l2.284.211-1.109,2.008a7.626,7.626,0,0,1-2.723,2.972A7.315,7.315,0,0,1,439.3,30c-9.29.171-18.442.318-27.78.465-12.875.2-26.188.412-39.355.6-4.83.069-9.74.129-14.489.188-7.958.1-16.187.2-24.277.343-4.813.085-9.705.169-14.437.249-18.025.306-36.663.623-54.983,1.136-12.87.358-25.951,1.014-38.6,1.649-2.865.144-5.828.292-8.743.435-15.542.762-27.378,1.42-38.377,2.136-9.576.625-18.883,1.478-26.724,2.23-10.81,1.035-22.1,2.21-33.548,3.494-3.4.38-6.854.909-10.192,1.42-1.593.244-3.239.5-4.865.73-.57.082-1.133.152-1.728.225l-.891.111Zm1.675-4.7a9.163,9.163,0,0,0,.2,1.439c.488-.06.954-.119,1.416-.186,1.613-.232,3.253-.483,4.839-.726,3.368-.516,6.85-1.049,10.312-1.436,11.466-1.285,22.77-2.463,33.6-3.5,7.863-.754,17.2-1.61,26.815-2.237,11.016-.717,22.866-1.376,38.425-2.139,2.913-.143,5.875-.291,8.739-.435C237.9,31,251,30.343,263.9,29.985c18.336-.513,36.983-.83,55.016-1.137,4.731-.08,9.623-.164,14.435-.249,8.1-.145,16.331-.246,24.294-.344,4.747-.058,9.656-.119,14.483-.188,13.165-.189,26.477-.4,39.35-.6,9.336-.148,18.486-.294,27.771-.465A4.47,4.47,0,0,0,441.4,26.5a23.12,23.12,0,0,0-2.512-.172h-.046c-5.189.021-10.468.076-15.573.129-3.333.035-6.779.071-10.169.1-8.951.067-18.051.131-26.852.192-13.209.092-26.868.187-40.3.3-14.052.116-28.756.272-43.7.463-2.547.033-5.136.063-7.64.092-9.725.114-19.782.231-29.658.525-9.975.3-20.116.708-29.923,1.106-5.631.229-11.453.466-17.182.678-19.282.712-35.126,1.645-49.861,2.937-1.706.15-3.436.254-5.109.354-.779.047-1.585.1-2.374.147l-3.474.23,2.22-2.683a2.933,2.933,0,0,1,1.939-1.045c3.293-.476,6.637-.981,9.872-1.469,7.405-1.117,15.063-2.273,22.649-3.174,15.278-1.814,31.992-3.613,51.1-5.5,21.093-2.086,39.723-3.8,56.954-5.227,15.932-1.322,32.044-2.458,47.887-3.377,9.753-.568,19.684-.847,29.288-1.117q2.717-.076,5.434-.154c9.993-.29,20.781-.526,32.979-.722l3.927-.065c5.177-.088,10.531-.179,15.8-.179,2.685,0,5.139.023,7.5.07,12.673.254,25.187.749,39.06,1.322,7.322.3,14.62.821,21.678,1.322,1.564.11,3.118.33,4.62.542,1.126.159,2.29.324,3.424.436.1.01.2.015.3.015a4.6,4.6,0,0,0,3.444-1.769,17.011,17.011,0,0,0-2.222-.469c-3.1-.381-6.251-.772-9.3-1.149-11.382-1.411-23.152-2.87-34.75-4.137-6.093-.667-12.361-1.02-18.423-1.362q-1.7-.1-3.4-.194c-11.171-.654-21.246-1.228-31.44-1.629-7.423-.293-14.908-.33-21.939-.344-3.742-.007-7.734-.013-11.773-.013-10.249,0-18.116.044-25.508.141-14.882.2-32.5.467-50.321.972-16.545.47-33.362,1.154-49.626,1.816l-1.813.074c-13.461.549-27.885,1.164-42.16,1.94-15.865.863-31.988,1.874-47.581,2.852l-3.775.237c-15.158.95-30,1.951-41.228,2.716-8.309.567-18.125,1.252-27.926,2.04l-4.238.34c-12.951,1.039-26.343,2.114-39.486,3.339-14.41,1.345-28.919,2.908-42.451,4.4-.419.046-.845.084-1.256.121a13.724,13.724,0,0,0-4.91,1.037l.079.907c.154-.008.3-.017.435-.031,3.49-.345,7.034-.7,10.462-1.05,7.3-.739,14.856-1.5,22.3-2.177,7.209-.654,14.547-1.233,21.642-1.793,3.01-.237,6.122-.483,9.181-.731,4.259-.345,8.59-.7,12.778-1.046,10.155-.835,20.655-1.7,30.993-2.48,8.78-.664,17.713-1.245,26.352-1.807,2.8-.182,5.7-.371,8.547-.559,3.989-.264,8.044-.538,11.967-.8,10.922-.738,22.216-1.5,33.336-2.141,21-1.208,42.089-2.325,62.671-3.321,16-.773,31.859-1.414,47.133-1.908,15.943-.514,30.237-.837,43.7-.987,11.027-.123,22.691-.183,35.659-.183,5.386,0,10.958.01,17.034.031,6.62.022,13.343.2,19.845.365,2.937.076,5.974.155,8.96.219l.051,3c-7.484.416-15.041.629-21.447.782-3.847.092-7.757.171-11.538.247-6.838.138-13.908.28-20.854.507-9.843.322-20.414.777-32.319,1.39-6.254.323-13.111.8-21.577,1.487-6.52.533-13.147,1.151-19.555,1.749-2.067.193-4.2.392-6.306.586-3.227.3-6.509.595-9.682.883-8.7.789-17.693,1.605-26.522,2.491-7.365.738-14.847,1.551-22.083,2.337-5.449.592-11.084,1.2-16.632,1.78-16.469,1.714-33.631,3.971-52.465,6.9-15.963,2.48-31.946,5.934-47.4,9.275-4.326.935-8.8,1.9-13.206,2.833A14.109,14.109,0,0,0,100.885,40.854Z" transform="translate(0 0)" fill="#fdb851"/>
    </g>
  </g>
</svg>
