<svg xmlns="http://www.w3.org/2000/svg" xmlns:xlink="http://www.w3.org/1999/xlink" width="284.576" height="35.707" viewBox="0 0 284.576 35.707">
  <defs>
    <clipPath id="clip-path">
      <rect id="Rectangle_259" data-name="Rectangle 259" width="284.576" height="35.707" fill="#fdb851" stroke="#fdb851" stroke-width="1"/>
    </clipPath>
  </defs>
  <g id="Group_179" data-name="Group 179" transform="translate(0 0)">
    <g id="Group_178" data-name="Group 178" transform="translate(0 0)" clip-path="url(#clip-path)">
      <path id="Path_21" data-name="Path 21" d="M243.632,20.58c-.676,1.814-1.572,2.552-2.833,2.588q-7.614.208-15.226.378-10.786.252-21.572.489c-7.084.15-14.17.244-21.253.432-12.689.334-25.379.6-38.063,1.126-8.663.357-17.316,1.066-25.97,1.695-7.021.51-14.04,1.061-21.05,1.737-4.9.474-9.792,1.121-14.675,1.816q-9.213,1.308-18.4,2.842c-2.773.46-5.519,1.164-8.279,1.752-.457.1-.916.174-1.423.271a5.985,5.985,0,0,1-.24-.812c-.346-2.57-.3-2.728,1.707-3.356,11.053-3.463,22.042-7.267,33.268-9.854,9.557-2.2,19.151-4.127,28.8-5.616,7.078-1.09,14.144-2.295,21.226-3.348,6.611-.983,13.234-1.84,19.853-2.743,4.727-.645,9.453-1.325,14.185-1.9,3.945-.478,7.9-.908,11.853-1.211,5.907-.451,11.818-.844,17.732-1.131s11.842-.4,17.764-.613c3.909-.139,7.817-.311,11.73-.634-5.259-.166-10.517-.448-15.775-.474-9.624-.049-19.249-.036-28.873.124-7.98.132-15.961.42-23.937.8q-12.917.619-25.824,1.55-17.18,1.232-34.347,2.7c-8.28.706-16.552,1.579-24.827,2.393-6.376.626-12.754,1.209-19.123,1.923-8,.9-15.993,1.9-23.989,2.865-5.63.676-11.266,1.294-16.889,2.05-5.989.805-11.967,1.746-17.949,2.622-.3.046-.613.042-1.073.072C.1,20.161.049,19.287,0,18.454c1.289-1.279,2.784-1.265,4.155-1.488,7.753-1.265,15.512-2.5,23.284-3.576,7.983-1.1,15.982-2.039,23.979-2.992,5.1-.608,10.211-1.142,15.318-1.659q11.3-1.142,22.6-2.208c9.385-.872,18.768-1.754,28.159-2.512,7.7-.621,15.413-1.112,23.122-1.578,9.4-.567,18.8-1.141,28.208-1.537,9.2-.386,18.4-.61,27.6-.79,6.815-.134,13.633-.122,20.449-.1,4.019.011,8.043.046,12.057.28,5.754.336,11.5.826,17.25,1.325,4.008.346,8.028.624,12.007,1.27,8.067,1.307,16.11,2.833,24.158,4.3a15.722,15.722,0,0,1,2.23.756c-.182,1.987-1.8,3.687-3.248,3.475-1.467-.215-2.918-.639-4.387-.792-3.949-.416-7.9-.83-11.859-1.072-7.128-.437-14.261-.862-21.394-1.074-4.963-.147-9.933.024-14.9.142-6.024.143-12.048.328-18.068.587-6.34.274-12.685.486-19.01,1.032q-13.13,1.129-26.23,2.743c-10.414,1.283-20.817,2.723-31.208,4.247-9.344,1.369-18.681,2.829-27.994,4.469-5.96,1.05-11.872,2.5-17.8,3.77a.755.755,0,0,0-.548.42c1.362-.134,2.727-.228,4.084-.406,9.1-1.183,18.232-1.891,27.374-2.391,8.61-.473,17.215-1.072,25.828-1.451,6.816-.3,13.639-.372,20.46-.5q11.981-.227,23.96-.376c12.271-.15,24.541-.261,36.812-.4,4.706-.054,9.41-.156,14.114-.184a23.912,23.912,0,0,1,3.07.4" transform="translate(0 0)" fill="#fdb851"/>
      <path id="Path_21_-_Outline" data-name="Path 21 - Outline" d="M54.536,36.281l-.13-.43c-.034-.111-.067-.21-.1-.3a3.008,3.008,0,0,1-.157-.586,4.9,4.9,0,0,1,.021-2.7c.313-.626.977-.872,2.032-1.2,2.412-.756,4.863-1.541,7.233-2.3,8.494-2.722,17.278-5.537,26.073-7.563,10.35-2.386,19.782-4.225,28.837-5.623,3.038-.468,6.125-.965,9.111-1.446,3.969-.639,8.074-1.3,12.117-1.9,4.85-.721,9.786-1.385,14.56-2.028,1.737-.234,3.533-.475,5.3-.716q1.727-.236,3.454-.476c3.518-.486,7.155-.99,10.738-1.424,4.657-.564,8.43-.949,11.875-1.213,6.536-.5,12.341-.87,17.746-1.132,3.818-.185,7.7-.3,11.452-.413,2.071-.062,4.213-.126,6.318-.2l.709-.026c-1.582-.044-3.166-.075-4.739-.083-3.329-.017-6.381-.025-9.331-.025-7.1,0-13.493.049-19.531.149-7.367.122-15.192.384-23.922.8-8.363.4-17.047.922-25.812,1.549-11.277.809-22.831,1.717-34.34,2.7-6.087.519-12.273,1.139-18.256,1.738-2.151.216-4.376.439-6.565.654-1.563.153-3.152.307-4.688.455-4.731.457-9.623.929-14.428,1.467-5.662.634-11.416,1.336-16.98,2.014-2.3.28-4.67.569-7.005.85-1.679.2-3.386.4-5.037.595-3.885.455-7.9.925-11.845,1.455-4.072.547-8.208,1.168-12.208,1.768-1.879.282-3.823.573-5.735.854a6.593,6.593,0,0,1-.695.054c-.13.006-.265.012-.418.022l-.5.032-.029-.5c-.042-.722-.082-1.4-.12-2.044l-.05-.842.16-.159a5.919,5.919,0,0,1,3.769-1.533c.228-.03.444-.059.658-.094,7.425-1.211,15.387-2.483,23.3-3.578,7.213-1,14.557-1.871,21.66-2.716L51.359,9.9c5.378-.641,10.766-1.2,15.327-1.66,6.16-.622,14.3-1.436,22.609-2.209l2.077-.193c8.548-.795,17.388-1.617,26.088-2.319,7.835-.632,15.748-1.132,23.132-1.578l1-.06c8.918-.538,18.14-1.095,27.217-1.477,9.781-.411,19.445-.63,27.608-.791,4.059-.08,8.377-.115,14-.115,2.215,0,4.4.005,6.457.011,3.87.011,7.99.042,12.085.281,5.6.327,11.132.794,17.264,1.326q.93.08,1.862.157c3.343.279,6.8.568,10.181,1.117,6.367,1.032,12.823,2.218,19.067,3.366,1.672.307,3.4.625,5.1.935a8.812,8.812,0,0,1,1.629.521c.234.092.454.179.674.255l.37.128-.036.39c-.192,2.1-1.827,3.947-3.5,3.947a2.215,2.215,0,0,1-.32-.023c-.654-.1-1.309-.233-1.942-.366a24.291,24.291,0,0,0-2.425-.424c-3.859-.406-7.848-.826-11.838-1.071-7.6-.465-14.447-.867-21.378-1.073-1.284-.038-2.619-.056-4.08-.056-2.876,0-5.8.074-8.636.145l-2.155.053c-6.678.159-12.585.351-18.058.586q-1.488.064-2.977.126c-5.254.219-10.687.445-16.012.9-8.673.746-17.492,1.668-26.212,2.741-9.435,1.162-19.639,2.551-31.2,4.246-10.464,1.533-19.616,2.994-27.98,4.467-4.024.709-8.1,1.615-12.044,2.5,7.436-.9,15.466-1.572,25.035-2.1,3.137-.172,6.326-.364,9.41-.55,5.381-.324,10.945-.66,16.423-.9,5.428-.239,10.948-.335,16.286-.427,1.372-.024,2.791-.048,4.186-.075,8.192-.155,16.254-.282,23.964-.377,7.364-.09,14.852-.167,22.092-.242,4.825-.05,9.814-.1,14.72-.156,1.856-.021,3.744-.051,5.57-.079,2.8-.044,5.7-.089,8.547-.105h.031a11.825,11.825,0,0,1,2,.23c.351.06.714.122,1.108.176l.619.085-.218.585c-.724,1.944-1.769,2.87-3.287,2.913-5.083.139-10.1.258-15.228.378-7.062.165-14.365.335-21.573.489-2.647.056-5.338.105-7.941.153-4.363.08-8.875.162-13.31.279-2.639.069-5.321.137-7.915.2-9.881.249-20.1.507-30.14.923-7.056.291-14.227.824-21.162,1.34-1.571.117-3.195.238-4.792.354-8.521.619-15.01,1.155-21.039,1.736-5.251.508-10.354,1.2-14.652,1.813-5.929.842-12.117,1.8-18.392,2.841-1.867.309-3.76.739-5.591,1.155-.873.2-1.775.4-2.666.593-.312.067-.619.123-.945.182l-.489.09ZM207.655,3.491c2.952,0,6.005.008,9.336.025,3.628.018,7.313.16,10.877.3,1.61.062,3.275.126,4.912.178l.025,1c-4.1.338-8.243.511-11.754.635-2.108.075-4.251.139-6.324.2-3.749.112-7.625.227-11.433.412-5.4.262-11.191.631-17.718,1.13-3.429.263-7.188.647-11.831,1.209-3.575.433-7.208.936-10.722,1.422q-1.728.239-3.456.476c-1.767.241-3.563.483-5.3.717-4.77.642-9.7,1.306-14.546,2.026-4.038.6-8.139,1.261-12.105,1.9-2.987.481-6.076.979-9.118,1.447-9.03,1.394-18.439,3.229-28.765,5.609C80.978,24.189,72.215,27,63.74,29.713c-2.371.76-4.823,1.546-7.239,2.3-.893.28-1.312.447-1.437.7a5.049,5.049,0,0,0,.076,2.116,1.727,1.727,0,0,0,.083.307l.065-.012c.318-.058.619-.113.916-.177.885-.189,1.784-.393,2.653-.59,1.845-.419,3.753-.852,5.649-1.166,6.283-1.044,12.478-2,18.415-2.844,4.309-.613,9.426-1.308,14.7-1.818,6.037-.583,12.533-1.119,21.062-1.738,1.6-.116,3.22-.237,4.79-.354,6.943-.517,14.123-1.051,21.2-1.342,10.05-.417,20.271-.675,30.156-.924,2.594-.065,5.276-.133,7.914-.2,4.439-.117,8.953-.2,13.318-.279,2.6-.047,5.292-.1,7.938-.153,7.207-.154,14.509-.324,21.571-.489,5.123-.12,10.143-.239,15.224-.378.685-.019,1.462-.249,2.139-1.69l-.5-.084a11.129,11.129,0,0,0-1.834-.216h-.025c-2.845.017-5.739.062-8.537.105-1.827.028-3.716.058-5.574.079-4.907.055-9.9.106-14.721.156-7.24.075-14.727.152-22.09.242-7.707.094-15.767.221-23.957.376-1.4.027-2.815.051-4.187.075-5.332.093-10.845.188-16.26.426-5.469.24-11.029.575-16.406.9-3.086.186-6.276.378-9.416.551-10.571.579-19.258,1.337-27.337,2.387-.934.122-1.881.206-2.8.288-.427.038-.869.077-1.3.12l-.951.093.466-.835a1.251,1.251,0,0,1,.879-.666c1.806-.387,3.64-.8,5.414-1.195,4.058-.908,8.254-1.847,12.411-2.579,8.373-1.474,17.535-2.937,28.008-4.471,11.565-1.7,21.777-3.086,31.219-4.249,8.732-1.074,17.563-2,26.248-2.745,5.347-.462,10.791-.688,16.056-.908q1.488-.062,2.975-.125c5.479-.236,11.392-.428,18.077-.587l2.153-.053c2.838-.072,5.772-.145,8.661-.145,1.471,0,2.816.019,4.11.057,6.946.206,13.806.609,21.41,1.075,4.012.246,8.012.667,11.881,1.074a25.051,25.051,0,0,1,2.526.439c.618.13,1.257.264,1.882.355a1.208,1.208,0,0,0,.175.013c.952,0,2.151-1.137,2.449-2.662l-.326-.127a8.072,8.072,0,0,0-1.443-.468c-1.7-.31-3.43-.628-5.1-.935-6.238-1.147-12.689-2.332-19.046-3.363-3.343-.542-6.78-.83-10.1-1.107q-.933-.078-1.865-.158c-6.125-.532-11.649-1-17.236-1.324C224.835.552,220.73.521,216.875.51,214.823.5,212.634.5,210.421.5c-5.619,0-9.932.035-13.984.115-8.158.16-17.815.38-27.586.79-9.068.382-18.285.938-27.2,1.476l-1,.06c-7.379.446-15.287.946-23.112,1.577-8.695.7-17.531,1.523-26.076,2.318l-2.077.193c-8.309.773-16.443,1.586-22.6,2.208-4.557.461-9.939,1.018-15.31,1.658l-2.328.277c-7.1.845-14.437,1.718-21.641,2.714-7.9,1.093-15.853,2.364-23.272,3.574-.229.037-.462.068-.687.1a5.159,5.159,0,0,0-3.035,1.1l.023.383c.029.5.06,1.011.091,1.55a5.156,5.156,0,0,0,.528-.042c1.912-.28,3.855-.572,5.734-.853,4-.6,8.144-1.222,12.223-1.77,3.951-.531,7.973-1,11.862-1.457,1.65-.193,3.357-.393,5.034-.594,2.335-.281,4.708-.57,7-.85,5.567-.679,11.323-1.381,16.99-2.016,4.812-.539,9.708-1.012,14.443-1.469,1.536-.148,3.125-.3,4.687-.455,2.188-.215,4.412-.438,6.563-.653,5.986-.6,12.176-1.22,18.271-1.74,11.514-.982,23.072-1.89,34.354-2.7,8.773-.628,17.465-1.15,25.836-1.551,8.74-.418,16.576-.68,23.953-.8C194.151,3.54,200.545,3.491,207.655,3.491Z" transform="translate(0 0)" fill="#fdb851"/>
    </g>
  </g>
</svg>
